# xmcd CD database file
#
# Track frame offsets:
#	183
#	25748
#	46683
#	68643
#	92528
#	108883
#	131645
#	151258
#	173665
#	196405
#	220233
#
# Disc length: 3075 seconds
#
# Revision: 9
# Processed by: cddbd v1.5.2PL0 Copyright (c) Steve Scherf et al.
# Submitted via: CDex 1.70beta3
#
DISCID=840c010b
DTITLE=Madonna - Like A Prayer
DYEAR=1989
DGENRE=Pop
TTITLE0=Like A Prayer
TTITLE1=Express Yourself
TTITLE2=Love Song
TTITLE3=Till Death Do Us Part
TTITLE4=Promise To Try
TTITLE5=Cherish
TTITLE6=Dear Jessie
TTITLE7=Oh Father
TTITLE8=Keep It Together
TTITLE9=Spanish Eyes
TTITLE10=Act Of Contrition
EXTD=YEAR: 1989
EXTT0=
EXTT1=
EXTT2=
EXTT3=
EXTT4=
EXTT5=
EXTT6=
EXTT7=
EXTT8=
EXTT9=
EXTT10=
PLAYORDER=
